<?xml version="1.0" encoding="UTF-8"?>
<!-- Generator: Adobe Illustrator 24.2.1, SVG Export Plug-In . SVG Version: 6.00 Build 0)  -->
<svg version="1.1" id="Capa_1" xmlns="http://www.w3.org/2000/svg" xmlns:xlink="http://www.w3.org/1999/xlink" x="0px" y="0px" viewBox="0 0 437.5 82.9" style="enable-background:new 0 0 437.5 82.9;" xml:space="preserve">
<style type="text/css">
	.st0{fill-rule:evenodd;clip-rule:evenodd;}
</style>
<g>
	<path class="st0" d="M20.8,59.1c-1.7,0-3.1-1.4-3.1-3.1s1.4-3,3.1-3h6.6c1.9,0,2-1,1.4-2.2L17.9,27.9c-0.1-0.2-0.1-0.5-0.1-0.8   c0-1.7,1.4-3.1,3.1-3.1c1.3,0,2.4,0.8,2.9,1.9c0.4,1.1,8.9,18.2,9.6,19.9c0.6,1.7,1.6,1.5,2.3,0.5c0.6-1,12.2-19.6,12.9-20.7   c0.7-1.2,1.5-1.5,3.1-1.5s9.8,0,9.8,0c1.7,0,3.1,1.4,3.1,3.1s-1.4,3.1-3.1,3.1c0,0-4.7,0-6.5,0s-2.1,0.6-2.8,1.8   C51.5,33.3,41.5,50.3,41,51.2s-0.5,2,1.4,2l19.1-0.1c1.7,0,3.1,1.4,3.1,3.1s-1.4,3.1-3.1,3.1L20.8,59.1z"/>
	<path class="st0" d="M41.6,0C18.8,0,0.2,18.5,0.1,41.4s18.5,41.5,41.3,41.5C64.3,83,82.9,64.4,82.9,41.6C83,18.7,64.5,0.1,41.6,0    M41.5,77.5L41.5,77.5c-19.9,0-36-16.2-35.9-36.1c0-19.9,16.2-36,36.1-35.9c19.9,0,36,16.2,35.9,36.1   C77.5,61.4,61.3,77.5,41.5,77.5"/>
</g>
<g>
	<path class="st0" d="M100.5,22.6c0.8,0,1.5,0.7,1.5,1.5l-0.1,26.7c0,0.8,0.7,1.5,1.5,1.5h9.8c0.8,0,1.3,0.7,1.2,1.5l-0.7,3.1   c-0.2,0.8-1,1.5-1.8,1.5H96.1c-0.8,0-1.5-0.7-1.5-1.5l0.1-32.7c0-0.8,0.7-1.5,1.5-1.5L100.5,22.6z"/>
	<path class="st0" d="M137.4,22.6c0.8,0,1.7,0.6,1.9,1.4l10.3,32.9c0.2,0.8-0.2,1.4-1,1.4h-4.7c-0.8,0-1.7-0.7-1.9-1.4l-1.7-5.6   c-0.2-0.8-1.1-1.4-1.9-1.4h-7.5c-0.8,0-1.7,0.6-1.9,1.4l-1.7,5.6c-0.2,0.8-1.1,1.4-1.9,1.4h-4.5c-0.8,0-1.3-0.6-1-1.4L130.8,24   c0.3-0.8,1.1-1.4,2-1.4H137.4z M136.6,43.9L136.6,43.9c0.8,0,1.3-0.6,1.1-1.4c0,0,0-0.1-0.5-1.5c-0.4-1.4-0.8-2.8-1.1-4.2L135,32   c-0.2-0.8-0.5-0.8-0.7,0l-1,4c-0.2,0.8-0.5,2.1-0.7,2.9c0,0-0.3,0.9-0.6,2.1s-0.7,2.2-0.9,3L136.6,43.9z"/>
	<path class="st0" d="M209.5,22.8c0.8,0,1.4,0.7,1.2,1.5l-0.6,3c-0.2,0.8-1,1.5-1.8,1.5h-5.5c-0.8,0-1.5,0.7-1.5,1.5L201.2,57   c0,0.8-0.7,1.5-1.5,1.5h-4.3c-0.8,0-1.5-0.7-1.5-1.5l0.1-26.7c0-0.8-0.7-1.5-1.5-1.5h-5.8c-0.8,0-1.5-0.7-1.5-1.5v-3   c0-0.8,0.7-1.5,1.5-1.5H209.5z"/>
	<path class="st0" d="M223.4,22.8c0.8,0,1.5,0.7,1.5,1.5L224.8,57c0,0.8-0.7,1.5-1.5,1.5h-4.5c-0.8,0-1.5-0.7-1.5-1.5l0.1-32.7   c0-0.8,0.7-1.5,1.5-1.5H223.4z"/>
	<path class="st0" d="M273.4,22.9c0.8,0,1.5,0.7,1.5,1.5l-0.1,32.7c0,0.8-0.7,1.5-1.5,1.5h-4.5c-0.8,0-1.5-0.7-1.5-1.5l0.1-32.7   c0-0.8,0.7-1.5,1.5-1.5L273.4,22.9z"/>
	<path class="st0" d="M356.8,23.1c0.8,0,1.8,0.6,2.1,1.4l3.3,7.1c0.3,0.7,0.9,2,1.3,2.7c0,0,0.1,0.3,0.4,1.1s0.5,1.5,0.7,2.1   l1.3-3.1c0.3-0.8,0.9-2,1.2-2.7l3.4-7.2c0.4-0.7,1.3-1.3,2.1-1.3h5.5c0.8,0,1.2,0.6,0.8,1.3l-10,18.4c-0.4,0.7-0.7,2-0.7,2.8v11.7   c0,0.8-0.7,1.5-1.5,1.5h-4.5c-0.8,0-1.5-0.7-1.5-1.5V45.7c0-0.8-0.3-2.1-0.7-2.8l-9.6-18.4c-0.4-0.7,0-1.3,0.8-1.3L356.8,23.1z"/>
	<path class="st0" d="M403.9,23.3c0.8,0,1.4,0.7,1.3,1.5l-0.5,2.9c-0.1,0.8-0.9,1.5-1.7,1.5h-9.2c-0.8,0-1.5,0.7-1.5,1.5V36   c0,0.8,0.7,1.5,1.5,1.5h7.2c0.8,0,1.5,0.7,1.5,1.5v2.9c0,0.8-0.7,1.5-1.5,1.5h-7.2c-0.8,0-1.5,0.7-1.5,1.5v6.6   c0,0.8,0.7,1.5,1.5,1.5h10.6c0.8,0,1.5,0.7,1.5,1.5v3.2c0,0.8-0.7,1.5-1.5,1.5h-17.8c-0.8,0-1.5-0.7-1.5-1.5l0.1-32.7   c0-0.8,0.7-1.5,1.5-1.5L403.9,23.3z"/>
	<path class="st0" d="M419.2,23.3c0.8,0,1.8,0.6,2.1,1.3l5.5,11.6c0.3,0.7,0.9,2,1.2,2.7c0,0,1,2.3,1.7,4c0.6,1.7,1.2,3.3,1.6,4.8   c-0.1-1.1-0.2-2.8-0.4-5c-0.1-2.2-0.2-3.8-0.2-4.8V24.8c0-0.8,0.7-1.5,1.5-1.5h3.8c0.8,0,1.5,0.7,1.5,1.5l-0.1,32.7   c0,0.8-0.7,1.5-1.5,1.5h-4.5c-0.8,0-1.8-0.6-2.1-1.4l-4.8-10.9c-0.3-0.7-0.9-2-1.2-2.7c0,0-2.1-4.7-2.8-6.4   c-0.7-1.8-1.2-3.1-1.4-3.9c0.1,1.1,0.2,2.7,0.3,4.9c0.1,2.2,0.1,3.9,0.1,5.2l0.1,13.8c0,0.8-0.7,1.5-1.5,1.5h-4   c-0.8,0-1.5-0.7-1.5-1.5l0.1-32.7c0-0.8,0.7-1.5,1.5-1.5L419.2,23.3z"/>
	<path class="st0" d="M179.5,54.6c-0.9-1.5-2-3.4-3.3-5.6s-2.2-3.6-2.8-4.2c-0.5-0.6-1.1-1.2-1.7-1.7l0,0c4.2,0,8-4,8-9.8   c0-6.4-4.4-10.5-12-10.5l0,0l0,0l0,0h-10.2c-0.8,0-1.5,0.7-1.5,1.5L155.9,57c0,0.8,0.7,1.5,1.5,1.5h4c0.8,0,1.5-0.7,1.5-1.5V43.6   c0.4,0,0.8,0.2,1.3,0.4s1.1,0.9,1.8,2s3.2,5.4,3.2,5.4c0.4,0.7,1.1,1.9,1.5,2.6l1.9,3.3c0.4,0.7,1.4,1.3,2.2,1.3h7   C181.1,57.4,180.4,56.1,179.5,54.6 M167.4,38.2h-3.2c-0.7,0-1.2-0.7-1.2-1.5l0,0v-6.6c0-0.8,0.7-1.5,1.5-1.5h2.9   c2.7,0,4.8,2.2,4.8,4.8S170,38.2,167.4,38.2"/>
	<path class="st0" d="M257.6,54.6c-0.9-1.5-2-3.4-3.3-5.6s-2.2-3.6-2.8-4.2c-0.5-0.6-1.1-1.2-1.7-1.7l0,0c4.2,0,8-4,8-9.8   c0-6.4-4.4-10.5-12-10.5l0,0l0,0l0,0h-10.2c-0.8,0-1.5,0.7-1.5,1.5L234,57c0,0.8,0.7,1.5,1.5,1.5h4c0.8,0,1.5-0.7,1.5-1.5V43.6   c0.4,0,0.8,0.2,1.3,0.4s1.1,0.9,1.8,2s3.2,5.4,3.2,5.4c0.4,0.7,1.1,1.9,1.5,2.6l1.9,3.3c0.4,0.7,1.4,1.3,2.2,1.3h7   C259.2,57.4,258.5,56.1,257.6,54.6 M245.4,38.2h-3.2c-0.7,0-1.2-0.7-1.2-1.5l0,0v-6.6c0-0.8,0.7-1.5,1.5-1.5h2.9   c2.7,0,4.8,2.2,4.8,4.8S248.1,38.2,245.4,38.2"/>
	<path class="st0" d="M282,40.4v-1.7c0-8.9,7.2-16.1,16.1-16.1c4.4,0,8.2,1.4,11.3,4.1l-2.8,3.2c-0.5,0.6-1.6,0.8-2.3,0.4   c0,0-3.4-2-6.1-2c-2.2,0-3.8,0.6-5,1.7s-2,2.6-2.5,4.5c-0.4,1.8-0.7,4.2-0.7,7c0,5,0.8,8.2,2.3,9.8c1.6,1.5,3.5,2.3,5.9,2.3   c1.6,0,2.9-0.3,4-0.9v-6.6c0-0.8-0.7-1.5-1.5-1.5h-2.5c-0.8,0-1.6-0.7-1.7-1.5l-0.4-2.9c-0.1-0.8,0.4-1.5,1.3-1.5h10.8   c0.8,0,1.5,0.7,1.5,1.5v14c0,0.8-0.6,1.7-1.4,2.1c0,0-6.2,2.6-10.4,2.6c-11.2,0-15.8-8.6-15.8-17.3L282,40.4z"/>
	<path class="st0" d="M347.1,40.8c0-5.6-1.3-10.1-4.1-13.3c-2.7-3.2-6.5-4.8-11.2-4.9c-2.8,0-5.3,0.6-7.7,1.9   c-2.4,1.3-4.2,3.4-5.6,6.3s-2.1,6.3-2.1,10.2c0,0.1,0,0.1,0,0.1l0,0c0,0.2,0,0.3,0,0.5c0,0.1,0,0.2,0,0.4s0,0.4,0,0.6   c0,0.1,0,0.3,0,0.4s0,0.2,0,0.3c0.2,3.4,0.9,6.2,2.1,8.3c0.5,1,1.1,1.9,1.8,2.8c1.1,1.3,2.3,2.3,3.6,3c0.4,0.2,0.8,0.5,1.2,0.6   c0.8,0.4,1.7,0.6,2.7,0.8c1.2,0.2,2.4,0.4,3.7,0.4c0.1,0,0.1,0,0.2,0s0.1,0,0.2,0c2.8,0,5.3-0.6,7.6-1.9c2.3-1.2,4.1-3.3,5.5-6.2   c1.1-2.4,1.8-5.2,2-8.4C347,42.1,347.1,41.4,347.1,40.8L347.1,40.8C347.1,40.9,347.1,40.8,347.1,40.8 M338.8,41L338.8,41L338.8,41   c0,4.2-0.6,7.5-1.8,9.7c-0.5,1-1.3,1.8-2.3,2.3s-2,0.8-3.3,0.8c-1.7,0-3.1-0.5-4.1-1.4c-1.1-0.9-1.8-2.2-2.3-3.8s-0.7-4.1-0.7-7.6   l0,0l0,0c0-4.2,0.6-7.5,1.8-9.7c0.5-1,1.3-1.8,2.3-2.3s2-0.8,3.3-0.8c1.7,0,3.1,0.5,4.1,1.4c1.1,0.9,1.8,2.2,2.3,3.8   C338.6,35,338.8,37.5,338.8,41"/>
</g>
</svg>